<?xml version="1.0" standalone="no"?>
<!DOCTYPE svg PUBLIC "-//W3C//DTD SVG 20010904//EN"
 "http://www.w3.org/TR/2001/REC-SVG-20010904/DTD/svg10.dtd">
<svg version="1.0" xmlns="http://www.w3.org/2000/svg"
 width="1280.000000pt" height="1279.000000pt" viewBox="0 0 1280.000000 1279.000000"
 preserveAspectRatio="xMidYMid meet">
<g transform="translate(0.000000,1279.000000) scale(0.100000,-0.100000)"
fill="#000000" stroke="none">
<path d="M6595 12779 c-33 -4 -132 -13 -220 -19 -1151 -79 -2348 -501 -3340
-1178 -1073 -731 -1967 -1798 -2480 -2957 -291 -657 -477 -1392 -525 -2075 -6
-85 -16 -204 -21 -265 -10 -101 -7 -387 6 -540 3 -33 10 -121 16 -195 160
-2020 1291 -3859 2969 -4830 160 -92 488 -252 655 -320 499 -202 1029 -329
1540 -369 77 -6 176 -16 221 -21 103 -13 396 -13 499 0 44 5 145 14 225 20
1219 95 2547 633 3728 1514 358 267 561 443 897 780 318 319 526 561 761 886
667 923 1090 1990 1218 3070 65 549 67 894 10 1420 -166 1533 -904 2898 -2069
3826 -698 556 -1568 948 -2503 1128 -285 55 -537 88 -807 106 -88 6 -207 15
-265 20 -121 12 -427 11 -515 -1z m285 -104 c0 -8 -7 -61 -15 -118 -59 -388
-88 -753 -89 -1112 l-1 -300 -130 -7 c-377 -21 -566 -42 -825 -92 -69 -13
-129 -21 -133 -16 -9 8 35 82 216 360 238 364 548 793 828 1145 116 145 149
176 149 140z m-120 -1624 c0 -10 -4 -40 -9 -67 -16 -85 -49 -373 -62 -537 -15
-200 -6 -755 16 -997 38 -413 109 -786 232 -1217 54 -189 32 -174 206 -144
1072 188 2196 239 3242 150 167 -14 495 -49 524 -55 39 -8 8 -28 -104 -64
-577 -189 -1298 -531 -1870 -888 -355 -221 -865 -602 -1128 -842 -17 -16 -13
-25 99 -196 150 -228 303 -449 624 -899 384 -539 501 -706 677 -970 260 -390
512 -810 496 -826 -5 -5 -40 10 -83 38 -673 419 -1483 752 -2365 972 -343 85
-811 191 -847 191 -22 0 -199 -297 -562 -948 -425 -760 -667 -1097 -1174
-1630 -149 -157 -190 -187 -185 -137 1 11 10 119 19 240 23 306 14 927 -27
1875 -5 129 -12 461 -16 736 l-6 502 -36 17 c-190 89 -614 334 -845 488 -432
287 -754 553 -1141 941 -217 217 -535 568 -535 589 0 6 40 7 108 3 742 -49
1252 -27 1965 85 348 54 864 155 884 173 7 6 40 94 73 196 348 1050 805 1923
1471 2810 194 258 334 430 349 430 6 0 10 -8 10 -19z m4275 -2136 c437 -20
609 -33 1028 -76 241 -24 415 -47 429 -55 16 -10 -2 -20 -92 -49 -383 -124
-940 -344 -1305 -515 -59 -27 -115 -50 -124 -50 -12 0 -29 39 -65 143 -57 168
-129 343 -197 480 -27 54 -49 107 -49 118 0 23 -24 23 375 4z m-10380 -1211
c130 -12 326 -18 710 -20 456 -3 530 -6 533 -18 2 -8 -12 -64 -32 -124 -94
-291 -159 -617 -194 -971 -10 -99 -22 -176 -28 -178 -21 -7 -391 335 -639 589
-287 294 -655 708 -655 736 0 12 11 14 63 8 34 -3 143 -13 242 -22z m9588
-4192 c300 -452 633 -1000 617 -1015 -4 -5 -84 36 -176 91 -93 54 -236 136
-319 182 -156 86 -666 342 -792 398 -40 18 -73 37 -73 44 0 6 76 88 168 182
92 94 210 221 262 281 98 116 109 127 122 119 4 -3 90 -130 191 -282z m-6271
-1388 c273 -150 646 -293 946 -364 29 -7 52 -18 52 -25 0 -35 -306 -433 -534
-695 -227 -261 -570 -620 -593 -620 -16 0 -16 9 2 200 21 230 42 1019 27 1067
-11 38 -24 477 -14 488 8 7 3 10 114 -51z"/>
</g>
</svg>
